<?xml version="1.0" encoding="UTF-8"?><svg id="_層_1" xmlns="http://www.w3.org/2000/svg" xmlns:xlink="http://www.w3.org/1999/xlink" viewBox="0 0 933.68 418.7"><defs><style>.cls-1{mask:url(#mask);}.cls-2{fill:#fff;}.cls-3{fill:#a84b83;}.cls-4{fill:#2c2d2d;}.cls-5{fill:url(#_命名漸層_10);}.cls-6{fill:url(#_命名漸層_2);}</style><mask id="mask" x="38.74" y="118.48" width="199.1" height="163.22" maskUnits="userSpaceOnUse"><g id="mask3_803_8129"><path class="cls-2" d="M237.84,118.5H38.74v163.2H237.84V118.5Z"/></g></mask><linearGradient id="_命名漸層_2" x1="27.89" y1="7.17" x2="217.19" y2="136.83" gradientTransform="translate(0 282.9) scale(1 -1)" gradientUnits="userSpaceOnUse"><stop offset="0" stop-color="#4b5d9e"/><stop offset=".23" stop-color="#3d5f96"/><stop offset=".24" stop-color="#3d5f96"/><stop offset=".57" stop-color="#9a5179"/><stop offset=".7" stop-color="#be4c6c"/><stop offset=".78" stop-color="#c6606c"/><stop offset=".95" stop-color="#da9a6a"/><stop offset="1" stop-color="#e1af6b"/></linearGradient><linearGradient id="_命名漸層_10" x1="23.14" y1="59.41" x2="149.68" y2="102.93" gradientTransform="translate(0 282.9) scale(1 -1)" gradientUnits="userSpaceOnUse"><stop offset="0" stop-color="#4e8aa6"/><stop offset=".08" stop-color="#4d85a2"/><stop offset=".18" stop-color="#45759d"/><stop offset=".28" stop-color="#3d5f96"/><stop offset=".35" stop-color="#445f94"/><stop offset=".44" stop-color="#515c90"/><stop offset=".53" stop-color="#695889"/><stop offset=".63" stop-color="#89547e"/><stop offset=".73" stop-color="#b14d70"/><stop offset=".76" stop-color="#be4c6c"/><stop offset=".83" stop-color="#c6606c"/><stop offset=".96" stop-color="#da9a6a"/><stop offset="1" stop-color="#e1af6b"/></linearGradient></defs><g class="cls-1"><g><path class="cls-6" d="M226.64,149.7c-1.3-2-2.7-4-4.2-5.8-1.5-1.9-3.1-3.6-4.8-5.3-4.2-4.2-8.9-7.9-14.1-10.9-4.1-2.4-8.6-4.4-13.2-5.8-9.3-3-19.6-4.1-30.4-3h-.2l-24.2,2.6-23.3,2.5-16,1.7v38.4c0,11.3,9.8,20.1,21,18.9l18.3-2v-21.2l23.3-2.5c22-2.4,39.9,13.8,39.9,36s-17.9,42.2-39.9,44.6l-23.3,2.6v-21l-39.3,4.2-35.8,3.9v13.4c0,8.7,7.2,14.9,15.8,13.9l20-2.2v14.5c0,8.6,7.5,15.3,16,14.4l23.3-2.5,24.2-2.6h.2c10.8-1.1,21-4.4,30.3-9.4,4.7-2.5,9.1-5.4,13.2-8.7,3.1-2.5,6.1-5.1,8.8-8,3.7-3.8,7.1-7.9,10-12.3,1.5-2.2,2.9-4.4,4.2-6.7,7.2-12.7,11.3-27.1,11.3-42,.1-15-4-28.5-11.1-39.7Z"/><path class="cls-5" d="M51.14,195.8l52.3-5.5v24l-64.6,6.9v-12.3c0-6.9,5.4-12.3,12.3-13.1Z"/><path class="cls-3" d="M172.54,185.89l-15.5,1.7c-3.1,.3-5.4,2.9-5.4,6v15.7l15.5-1.7c3.1-.3,5.4-2.9,5.4-6v-15.7Z"/></g></g><g><g><path class="cls-4" d="M381.91,135.57c0-.64,.51-1.15,1.15-1.15h22.37c2.06,0,4.11,.27,6.2,.8,2.09,.54,3.95,1.42,5.62,2.65s3.02,2.85,4.06,4.86c1.04,2,1.55,4.5,1.55,7.47,0,2.76-.51,5.14-1.55,7.13-1.04,1.99-2.4,3.63-4.06,4.91-1.67,1.28-3.55,2.22-5.62,2.83-2.09,.61-4.16,.92-6.2,.92h-22.37c-.64,0-1.15-.51-1.15-1.15v-29.28h0Zm22.62,25.55c1.46,0,2.91-.18,4.37-.51,1.46-.33,2.77-.92,3.95-1.75,1.18-.82,2.14-1.92,2.88-3.33,.74-1.41,1.11-3.16,1.11-5.31,0-2.26-.37-4.1-1.11-5.54-.74-1.42-1.7-2.55-2.88-3.34-1.18-.8-2.49-1.36-3.95-1.65-1.46-.3-2.91-.45-4.37-.45h-17v21.86h17v.02Z"/><path class="cls-4" d="M447.91,134.38h3.46c.49,0,.94,.31,1.08,.79l7.9,23.54,6.21-10.35c1.04-1.75,2.94-2.82,4.97-2.82s3.95,1.08,5,2.85l6.08,10.32,8.05-23.54c.16-.46,.59-.77,1.08-.77h3.28c.79,0,1.33,.77,1.08,1.5l-9.04,27.22c-.57,1.69-2.33,2.87-4.35,2.87-1.7,0-3.28-.85-4.04-2.19l-7.16-12.57h-.09l-7.16,12.57c-.77,1.34-2.33,2.19-4.04,2.19-2,0-3.78-1.16-4.35-2.87l-9.04-27.22c-.24-.74,.31-1.5,1.08-1.5h0Z"/><path class="cls-4" d="M434.21,166h2.98c.64,0,1.15-.51,1.15-1.14v-29.34c0-.63-.51-1.14-1.15-1.14h-2.98c-.64,0-1.15,.51-1.15,1.14v29.34c0,.63,.51,1.14,1.15,1.14Z"/><path class="cls-4" d="M274.95,135.41v2.93c0,.6,.48,1.08,1.08,1.08h10.66v23.42c0,1.75,1.41,3.17,3.17,3.17s3.17-1.41,3.17-3.17v-23.42h10.66c.6,0,1.08-.48,1.08-1.08v-2.93c0-.6-.48-1.08-1.08-1.08h-27.66c-.6,0-1.08,.48-1.08,1.08h0Z"/><path class="cls-4" d="M310.05,134.33h3.46c.48,0,.93,.31,1.08,.78l7.9,23.58,6.2-10.37c1.04-1.75,2.93-2.82,4.96-2.82s3.94,1.08,4.99,2.86l6.07,10.34,8.05-23.58c.16-.46,.6-.78,1.08-.78h3.28c.78,0,1.33,.78,1.08,1.51l-9.03,27.28c-.57,1.69-2.33,2.87-4.34,2.87-1.7,0-3.27-.85-4.04-2.19l-7.15-12.6h-.1l-7.15,12.6c-.77,1.34-2.33,2.19-4.04,2.19-2,0-3.77-1.16-4.34-2.87l-9.03-27.28c-.25-.75,.3-1.52,1.07-1.52h0Z"/></g><g><path class="cls-4" d="M325.62,200.04h-3.75v-2.21c0-2.77-.74-4.61-2.15-5.65-1.41-.98-3.56-1.47-6.57-1.47h-10.26v-4.18c0-1.29-.49-3.38-3.87-3.38s-3.87,2.15-3.87,3.38v4.18h-10.32c-3.13,0-5.28,.49-6.64,1.47-1.35,1.04-2.09,2.95-2.09,5.65v2.21h-3.63c-1.23,0-2.15,.25-2.77,.68-.68,.49-.98,1.29-.98,2.46s.31,1.97,.98,2.46c.61,.43,1.54,.68,2.77,.68h3.63v2.64c0,2.77,.74,4.61,2.15,5.59,1.35,.98,3.63,1.41,6.82,1.41h10.08v2.7h-10.32c-3.07,0-5.16,.49-6.45,1.47-1.29,1.04-1.97,2.83-1.97,5.47v1.72c0,2.64,.68,4.42,1.97,5.41,1.29,.98,3.38,1.41,6.45,1.41h11.74c-.06,.06-.12,.12-.12,.18-.43,.49-.92,.98-1.35,1.41-.37,.37-.8,.8-1.29,1.17h-26.24c-1.23,0-2.15,.25-2.83,.74-.68,.49-1.04,1.35-1.04,2.52s.37,2.03,1.11,2.46c.68,.37,1.54,.61,2.7,.61h17.57c-.61,.31-1.23,.68-1.84,1.11-2.7,1.6-3.75,3.38-3.2,5.16,.55,1.72,2.4,2.95,5.78,3.75,1.66,.37,3.32,.8,4.85,1.17,.8,.25,1.66,.43,2.46,.68-1.84,.43-3.81,.86-5.84,1.29-2.83,.55-5.9,1.04-9.28,1.47-1.84,.31-3.07,.74-3.81,1.29-.8,.61-1.17,1.6-1.04,2.64,.12,1.35,.68,2.21,1.54,2.7,.49,.25,1.23,.43,2.15,.43,.55,0,1.11-.06,1.78-.12,5.59-.74,10.57-1.6,14.81-2.58,4.18-.92,8.05-2.15,11.55-3.5,3.69,1.23,7.13,2.46,10.2,3.75,2.03,.86,3.5,1.17,4.49,.98,1.11-.18,1.9-.8,2.33-1.78,.61-1.17,.68-2.27,.25-3.13-.43-.86-1.6-1.6-3.5-2.27-1.6-.61-3.38-1.23-5.28-1.9,3.01-1.84,5.84-4.12,8.48-6.7,3.13-3.13,4.18-5.59,3.2-7.68-.98-2.03-3.63-3.01-8.05-3.01h-13.27c.43-.68,.61-1.29,.55-1.9,0-.31-.12-.61-.25-.92h8.85c2.89,0,4.98-.49,6.33-1.41,1.41-.98,2.15-2.83,2.15-5.47v-1.72c0-2.64-.74-4.49-2.15-5.47-1.35-.98-3.44-1.47-6.39-1.47h-10.26v-2.7h10.26c3.07,0,5.22-.49,6.57-1.41,1.47-.98,2.15-2.89,2.15-5.65v-2.64h3.75c3.2,0,3.63-1.9,3.63-3.07,.25-1.04-.25-3.07-3.38-3.07Zm-29.86,28.82h-10.45c-1.29,0-1.97-.43-1.97-1.29v-2.21c0-.43,.18-.8,.61-1.04,.37-.25,.86-.37,1.35-.37h10.45v4.92Zm0-18.37h-10.81c-1.23,0-1.84-.43-1.84-1.35v-3.38h12.72v4.73h-.06Zm0-9.83h-12.72v-2.95c0-.43,.18-.8,.61-1.04,.37-.25,.86-.37,1.47-.37h10.63v4.36Zm19.97,42.03c.68,0,1.04,.12,1.11,.37s-.37,.8-1.29,1.6c-2.4,2.21-5.04,4.12-7.93,5.71-2.15,1.17-4.67,1.41-7,.8-1.04-.31-2.09-.61-3.13-.86-2.27-.61-4.61-1.23-6.94-1.84-.61-.18-.92-.31-.92-.49-.06-.12,.12-.31,.43-.49,.86-.49,1.9-1.17,3.07-1.97,1.23-.8,2.46-1.72,3.81-2.83h18.8Zm-3.01-18.68c1.29,0,1.97,.43,1.97,1.35v2.21c0,.37-.18,.61-.55,.92-.37,.25-.86,.37-1.41,.37h-10.45v-4.85h10.45Zm2.21-14.87c0,.92-.74,1.35-2.15,1.35h-10.57v-4.73h12.72v3.38Zm0-8.48h-12.72v-4.42h10.57c1.47,0,2.15,.49,2.15,1.41v3.01Z"/><path class="cls-4" d="M387.19,255.89h-12.29c-6.7,0-15.05,0-20.15-6.02-1.97-2.33-3.87-5.04-5.96-8.6,2.89-5.78,5.1-12.04,6.57-18.74,1.41-6.57,2.46-14.19,3.01-22.61h1.41c3.75,0,4.55-2.03,4.55-3.75s-.8-3.63-4.55-3.63h-20.65c.06-.49,.06-.98,.12-1.47,.06-.68,.06-1.35,.12-2.09,.12-2.09-.12-4.18-.8-4.85-.68-.61-1.66-.98-3.01-.98-1.47,0-2.4,.31-2.95,1.04-.49,.68-.8,2.64-.98,4.61-.12,4.92-.86,9.77-2.09,14.5-1.29,4.73-2.77,9.03-4.42,12.84-.8,1.72-1.11,2.95-.98,3.87,.12,.98,.8,1.78,1.97,2.33,1.54,.68,2.83,.74,3.87,.18,.92-.55,1.84-1.78,2.7-3.87,0-.06,.06-.12,.06-.18,.68,4.12,1.6,7.99,2.64,11.43,1.23,3.99,2.77,7.8,4.61,11.37-1.66,2.89-3.56,5.65-5.71,8.23-2.27,2.64-4.79,5.41-7.56,8.23-1.35,1.23-2.15,2.27-2.4,3.2-.31,1.04,0,2.03,.92,3.01,.8,.86,1.9,1.29,3.13,1.35h.18c1.23,0,2.58-.74,3.93-2.15,2.52-2.52,4.79-5.1,6.88-7.56,1.84-2.27,3.63-4.55,5.22-6.82,1.6,2.4,3.38,4.79,5.35,7.07,2.58,3.01,5.47,4.61,6.33,4.98,5.65,2.77,9.03,2.77,18.93,2.77h11.98c2.15,0,3.87-1.72,3.87-3.87-.06-2.09-1.78-3.81-3.87-3.81Zm-39.2-31.09c-.43,2.89-.98,6.14-1.54,8.05-.31,1.04-1.23,1.47-1.9,1.47-.74,0-1.54-.37-1.9-1.35-.49-1.6-.98-4.42-1.41-6.94-.31-1.66-.55-3.26-.8-4.42-1.23-5.53-2.21-11.92-2.83-18.99,.12-.49,.25-.98,.31-1.54l.18-1.11h13.21c-.55,7.74-1.41,14.69-2.52,20.58-.31,1.11-.55,2.64-.8,4.24Z"/><path class="cls-4" d="M783.16,257.55c-12.6-2.15-23.96-5.71-33.8-10.63,4.06-2.77,9.89-7.8,14.5-13.03,4.06-4.67,8.42-11.18,6.08-15.61-1.17-2.15-3.69-3.2-7.5-3.2h-18.68v-12.78h26.97c.18,1.23-.49,3.2-1.17,5.16-.74,2.15-1.47,4.18-1.11,5.41,.18,.92,.74,1.72,1.72,2.27,1.23,.68,2.83,.86,3.99,.37,1.17-.43,2.15-1.54,2.89-3.26,1.6-3.69,3.81-10.51,1.11-14.44-1.35-2.03-3.87-3.01-7.37-2.89h-26.97v-7.93c0-1.11-.31-2.03-.98-2.7-.74-.74-1.9-1.17-3.26-1.17-1.23,0-2.33,.43-3.07,1.17-.68,.68-.98,1.6-.98,2.7v7.93c-7.8,.25-13.89,.06-18.74-.06-8.54-.18-12.78-.31-15.12,1.97-2.4,2.4-2.33,7.25-2.21,16.96,.06,3.69,.12,8.23,.06,13.64,0,6.45-.61,12.35-1.84,17.51-1.23,5.28-3.2,8.23-5.47,11.67-.98,1.6-1.54,2.95-1.23,4.18,.25,.8,.8,1.47,1.84,2.09,2.7,1.41,4.98,.55,6.82-2.58,7.56-10.94,8.11-24.09,7.93-37.85h3.75c.37,.92,5.47,13.46,22,25.13-2.64,1.78-5.84,3.01-8.97,4.18l-.86,.31c-4.36,1.6-8.17,2.95-13.09,4.06-2.64,.61-5.41,1.6-4.79,5.04,.25,1.04,.74,1.84,1.47,2.33,1.17,.74,2.83,.8,5.16,.31,5.16-1.23,7-2.03,9.83-3.13,.92-.37,2.03-.8,3.38-1.35,2.89-1.11,7.87-3.5,14.81-7.25,11.61,6.7,25.5,11.43,41.35,14.13,.25,.06,.49,.06,.74,.06,2.15,0,3.93-1.54,4.3-3.63,.43-2.46-1.17-4.73-3.5-5.1Zm-22.24-33.06c-2.33,3.32-5.1,6.51-8.17,9.59-2.52,2.46-5.71,4.98-9.46,7.5-1.35,.92-3.63,.8-4.92-.25-4.73-3.81-5.84-4.79-8.36-7.43-3.07-3.2-6.08-7.07-9.03-11.49h38.59c1.6,0,1.9,.37,1.9,.49,.18,.31,0,.86-.55,1.6Zm-25.44-22.18v12.78h-27.96v-11.8c0-.25,.06-.49,.25-.68,.18-.25,.37-.25,.49-.25l27.22-.06Z"/><path class="cls-4" d="M404.82,186.89c-.43-1.17-1.47-1.97-3.2-2.27-1.6-.31-2.95,0-3.93,.98-.92,.92-1.6,2.21-2.15,3.99-.8,2.83-1.72,5.65-2.7,8.3-.98,2.64-2.09,5.35-3.32,7.93-1.23,2.58-2.64,5.22-4.24,7.87-1.6,2.64-3.44,5.35-5.53,8.05-1.6,2.03-2.4,3.56-2.46,4.79-.06,.92,.25,2.21,1.9,3.2,1.35,.8,2.64,.98,3.87,.49,1.11-.43,2.27-1.6,3.69-3.38,.55-.74,1.11-1.47,1.6-2.15l-.06,24.7c0,2.77,1.54,4.3,4.3,4.3s4.42-1.54,4.42-4.3l.06-39.14c1.41-2.95,2.77-5.96,3.93-8.97,1.17-3.07,2.33-6.27,3.38-9.65,.68-2.15,.8-3.63,.43-4.73Z"/><path class="cls-4" d="M466.84,206.25c-.68-.86-1.72-1.41-3.13-1.47-1.47-.12-2.58,.06-3.32,.61-.74,.55-1.29,1.66-1.72,3.38-1.04,4.49-2.09,8.66-3.2,12.41-1.04,3.75-2.15,7.37-3.26,10.75-1.11,3.44-2.33,6.82-3.56,10.14-.68,1.72-1.35,3.56-2.03,5.35-.55,1.41-.37,2.95,.49,4.18,.86,1.23,2.21,2.03,3.69,2.03h.06c1.54,0,2.89-.92,3.44-2.4,1.11-2.95,2.21-5.84,3.2-8.54,1.17-3.32,2.33-6.7,3.44-10.02,1.11-3.38,2.15-6.88,3.2-10.51,1.04-3.63,2.09-7.56,3.2-11.86,.37-1.72,.25-3.07-.49-4.06Z"/><path class="cls-4" d="M434.83,243.48c-.98-5.78-2.27-11.37-3.87-16.77-1.6-5.35-3.38-10.88-5.28-16.47-.49-1.17-1.29-1.97-2.33-2.46-1.04-.43-2.33-.49-3.69-.12-1.23,.25-2.09,.86-2.58,1.72-.49,.92-.43,2.03,.12,3.56,1.04,2.64,1.97,5.28,2.77,7.74,.8,2.52,1.6,5.1,2.27,7.68,.68,2.58,1.35,5.28,1.97,7.99,.68,2.7,1.35,5.53,1.97,8.48,.25,1.23,.55,2.15,1.04,2.77,.55,.74,1.6,1.04,3.44,1.04h.31c1.66-.18,2.77-.61,3.38-1.29s.8-1.9,.49-3.87Z"/><path class="cls-4" d="M481.31,263.88h-82.38c-2.25,0-4.06-1.78-4.06-3.99s1.81-3.99,4.06-3.99h82.38c2.25,0,4.06,1.78,4.06,3.99s-1.87,3.99-4.06,3.99Z"/><path class="cls-4" d="M470.96,194.45h-24.21c-.68-1.72-1.17-2.83-1.54-3.81-.43-1.11-1.04-2.58-1.54-4.12-.55-1.6-1.47-2.52-2.77-2.83-1.29-.31-2.4-.18-3.44,.37-1.11,.61-1.66,1.29-1.66,2.09s.18,1.72,.74,2.95c.37,.98,.8,1.97,1.29,2.95,.37,.8,.74,1.47,1.17,2.46h-27.34c-2.21,0-3.99,1.78-3.99,3.99s1.78,3.99,3.99,3.99h59.3c2.21,0,3.99-1.78,3.99-3.99s-1.78-4.06-3.99-4.06Z"/><g><path class="cls-4" d="M829.31,229.41c-.68-.8-1.29-1.6-1.9-2.33-.61-.8-1.29-1.6-1.97-2.4-.68-.8-1.54-1.66-2.4-2.64-.86-.92-1.84-1.9-2.95-3.07,.31-1.04,.61-2.15,.86-3.26,.31-1.17,.55-2.46,.74-3.69,.43-1.6,.37-2.83-.25-3.69-.49-.74-1.41-1.17-2.64-1.29-1.41-.12-2.46,.18-3.07,.8-.61,.61-1.04,1.66-1.23,3.26-.86,5.96-2.03,9.22-4.49,12.41-.18,.25-.37,.55-.61,.8-2.33,3.07-4.73,6.27-13.21,8.97-1.66,.55-2.77,1.6-3.07,2.95-.25,1.11,.12,2.27,.98,3.01,.68,.55,1.47,.61,2.27,.61h1.17c1.04,0,4.55-.86,8.11-2.46,5.47-3.26,9.65-8.11,11.86-11.74,1.11,1.23,2.09,2.46,2.95,3.56,.92,1.23,1.9,2.7,3.01,4.36,1.78,2.89,3.87,2.52,5.35,1.72,1.04-.55,1.66-1.23,1.84-2.09,.18-1.11-.25-2.33-1.35-3.81Z"/><path class="cls-4" d="M889.71,255.89h-9.83c-6.64,0-14.93,0-20.03-5.96-2.03-2.33-3.93-5.16-6.14-8.85-.25-.43-.55-.92-.86-1.47,.92-.18,2.09-.98,3.56-2.52,3.63-3.69,6.57-7.87,8.66-12.6,1.97,2.33,3.69,4.36,5.16,5.9,.49,.55,.98,1.04,1.47,1.54,1.66,1.78,3.32,3.63,5.65,5.65l.12,.12c1.66,1.47,2.89,2.58,4.24,2.58,.55,0,1.11-.18,1.72-.61,1.17-.8,1.72-1.72,1.72-2.77,0-.98-.37-2.09-1.17-3.32-.68-.86-2.95-2.83-4.79-4.42-.98-.86-2.03-1.78-2.15-1.9-.06-.06-.12-.18-1.23-1.23-1.35-1.35-3.63-3.69-4.49-4.67-1.11-1.29-2.33-2.7-3.63-4.24,.18-.8,.43-1.6,.61-2.46,.25-1.11,.49-2.27,.68-3.44,.37-1.47,.31-2.64-.25-3.44-.49-.68-1.29-1.11-2.52-1.23-1.29-.06-2.27,.18-2.89,.74-.61,.61-.98,1.6-1.11,3.01-.68,5.22-2.03,9.65-3.87,13.21-1.9,3.56-4.3,6.76-7.19,9.46-.37,.37-.74,.74-.98,1.04-1.97-4.42-3.75-9.03-3.99-9.65-.31-1.66-.43-2.52-.43-3.99v-9.95c.06-2.03,.06-4.3,.12-6.94h34.35c1.66,0,2.95-.37,3.75-1.11,.86-.8,1.29-1.78,1.29-3.07,0-1.6-.55-2.7-1.54-3.38-.92-.61-2.09-.86-3.5-.86h-34.35v-6.88c0-1.6-.37-2.83-1.04-3.69-.74-.92-1.9-1.35-3.5-1.35s-2.89,.49-3.5,1.47c-.61,.92-.92,2.09-.92,3.56v6.94h-35.15c-1.72,0-3.01,.37-3.81,1.17-.86,.8-1.23,1.84-1.23,3.13s.43,2.27,1.23,3.01c.8,.8,2.09,1.17,3.81,1.17h35.21v11.61c0,3.99-.31,6.7-.98,10.45-.06,.12-.06,.25-.06,.37-.12,1.11-3.99,27.77-42.46,31.95-2.21,.25-3.75,2.21-3.5,4.36,.25,2.03,1.97,3.56,3.93,3.56h.43c23.29-2.52,35.45-12.78,41.6-21.01,2.58-3.44,4.3-6.76,5.47-9.65,2.77,5.53,6.94,12.72,7.19,13.15,1.72,2.7,3.69,5.28,5.84,7.87,2.52,2.95,5.28,4.55,6.39,5.04,5.71,2.83,9.03,2.83,19.05,2.83h9.83c2.21,0,4.06-1.84,4.06-4.06,0-2.33-1.78-4.12-4.06-4.18Z"/></g><g><path class="cls-4" d="M534.73,238.52c1.42,.8,2.69,1.82,3.97,2.81,1.63,1.26,3.35,2.54,4.97,3.88,1.35,1.12,3.22,2.43,3.28,4.37,.05,1.79-1.59,3.45-3.22,3.95-1.79,.55-3.93-.97-5.5-2.28-2.02-1.68-4.13-3.25-6.25-4.8-1.62-1.19-4.33-2.55-4.49-4.84-.11-1.61,1.25-3.06,2.64-3.64,1.53-.64,3.21-.24,4.61,.55Z"/><path class="cls-4" d="M541.38,233.07c.7,1.49,1.43,2.37,2.23,2.67,.32,.12,.65,.18,1,.18,.52,0,1.06-.14,1.63-.41,.86-.38,1.48-.89,1.85-1.51h0c.38-.64,.43-1.55,.15-2.75-.33-1.51-.83-3.01-1.48-4.47-.65-1.44-1.44-2.93-2.35-4.44-1.13-1.76-2.72-2.39-4.59-1.82-1.24,.39-1.99,1.01-2.23,1.84-.22,.79-.06,1.78,.51,3.05,.57,1.13,1.14,2.34,1.68,3.59,.54,1.24,1.07,2.59,1.6,4.05Z"/><path class="cls-4" d="M555.69,242.84c-1.52,0-2.58,.44-3.13,1.31-.51,.81-.77,1.94-.77,3.38,0,1.86-.06,3.37-.18,4.51-.12,1.08-.36,1.92-.73,2.51-.36,.57-.85,.96-1.51,1.19-.71,.25-1.65,.44-2.81,.55-1.29,.17-2.88,.29-4.73,.35-3.81,.12-8.02,.13-12.27-.04-2.14-.09-4.13-.22-5.93-.4-2.03-.14-2.85-.58-3.18-.93-.48-.5-.72-1.26-.72-2.26v-10.26c0-1.59-.38-2.76-1.12-3.46-.74-.69-1.73-1.05-2.96-1.05-1.82,0-3.99,.78-3.99,4.51v9.46c0,2.03,.16,3.73,.48,5.06,.33,1.37,.93,2.51,1.8,3.39,.86,.88,2.04,1.52,3.52,1.93,1.43,.39,3.26,.68,5.46,.85,1.76,.12,3.71,.22,5.81,.31,2.12,.09,4.31,.13,6.52,.13s4.38-.03,6.61-.09c2.18-.06,4.23-.15,6.11-.27,2.14-.18,3.98-.51,5.48-.99,1.54-.5,2.82-1.36,3.81-2.57,.98-1.2,1.68-2.82,2.1-4.83,.41-1.97,.62-4.56,.62-7.7,0-1.45-.32-2.59-.94-3.37-.65-.81-1.77-1.23-3.33-1.23Z"/><path class="cls-4" d="M557.63,232.74c-.82-.19-1.68-.39-2.58-.61-1.35-.3-2.54-.34-3.54-.13-1.08,.23-1.82,.8-2.2,1.68-.45,1.06-.36,2.01,.24,2.85,.58,.8,1.64,1.39,3.14,1.76,2.19,.63,4.29,1.14,6.23,1.51,1.95,.38,3.67,.57,5.12,.57,.03,0,.06,0,.1,0,2.81-.1,4.56-.8,4.56-.8,.34-.14,.68-.28,.99-.46,1.49-.84,2.67-2.13,3.51-3.84,.82-1.67,1.4-3.81,1.73-6.36,.32-2.53,.49-5.58,.49-9.08,0-1.18-.12-2.16-.36-2.92-.25-.8-.69-1.44-1.3-1.93-.61-.48-1.46-.8-2.54-.95-1.02-.15-2.33-.22-3.89-.22h-19.48v-3.61h17.34c1.22-.06,2.05-.28,2.68-.85,.64-.57,.96-1.3,.96-2.16,0-1.45-.63-3.18-3.64-3.18h-17.34v-3.36h17.34c2.27-.26,2.93-1.76,2.99-3.15,.07-1.62-1.15-2.99-2.96-3.04-.01,0-.02,0-.04,0h-17.34v-3.36h19.85c2.68-.13,3.84-1.63,3.84-3.01,0-.97-.29-1.75-.85-2.31-.58-.58-1.56-.86-2.99-.86h-45.54c-1.9,0-3.46,.16-4.62,.49-1.2,.34-2.16,.85-2.86,1.53-.7,.69-1.17,1.57-1.38,2.63-.2,1-.3,2.15-.3,3.43v19.42c0,1.34,.1,2.48,.3,3.4,.21,.97,.66,1.77,1.34,2.38,.67,.59,1.61,1.03,2.81,1.31,1.16,.26,2.7,.4,4.6,.4h42.46c2.14,0,2.73,.24,2.88,.35,.13,.09,.44,.47,.44,1.98,.06,3.9-.19,6.85-.76,8.77-.52,1.78-1.74,2.65-3.73,2.65-.68,0-1.45-.07-2.27-.2m-20.43-23.27v3.61h-18.9c-1.22,0-1.39-.52-1.39-1.03v-2.58h20.28Zm0-9.54v3.36h-20.28v-3.36h20.28Zm0-9.54v3.36h-20.28v-2.07c0-.91,.42-1.29,1.39-1.29h18.9Z"/><path class="cls-4" d="M512.24,237.39c1.56-1.67,3.04-3.55,4.4-5.6,1.35-2.03,2.6-4.2,3.7-6.45,.66-1.31,.82-2.42,.47-3.31-.29-.74-.91-1.32-1.9-1.75-1.02-.32-2.03-.24-3.01,.24-.96,.47-1.72,1.28-2.27,2.38-.96,1.81-2.04,3.67-3.22,5.51-.99,1.54-1.95,2.84-2.87,3.89-.52,.59-.97,1.25-1.23,1.99-.35,1.01-.49,2.33,.71,3.15,0,0,2.83,2.27,5.23-.06Z"/><path class="cls-4" d="M492.39,189.6c1.68,1.87,3.3,3.79,4.87,5.75,1.19,1.48,2.42,2.92,3.54,4.46,.91,1.25,1.96,2.94,3.51,3.45,1.85,.61,3.46,.15,4.44-1.25,1.08-1.54,.14-3.33-.76-4.7-3.22-4.55-6.56-8.66-9.91-12.21-1.26-1.28-2.3-1.92-3.21-1.95-.89-.04-1.9,.39-3.12,1.3-.91,.76-1.27,1.58-1.06,2.43,.18,.76,.73,1.65,1.7,2.72Z"/><path class="cls-4" d="M487.33,259.86c.45,1.24,1.47,2.23,2.74,2.6,.99,.29,2.31,.29,3.67-.86,2.21-1.85,3.86-4.97,5.7-8.07,1.84-3.09,3.52-6.36,5-9.72,.81-1.69,.99-3.09,.52-4.14-.38-.85-1.16-1.48-2.33-1.85-1.41-.51-2.6-.5-3.52,.04-.9,.53-1.64,1.55-2.26,3.12-1.28,2.81-2.77,5.66-4.43,8.49-1.42,2.42-2.88,4.53-4.35,6.29,0,0-1.57,1.84-.75,4.1Z"/><path class="cls-4" d="M491.26,234.26c1.21-.05,2.02-.81,2.92-1.53,2.33-1.85,4.19-4.39,5.96-6.69,2.09-2.72,4.07-5.5,5.94-8.34,.75-1.14,1.5-2.31,1.96-3.58,.19-.53,.34-1.11,.18-1.66-.42-1.43-2.7-2.39-4.17-2.24-.97,.1-1.82,.67-2.43,1.38-1.14,1.34-1.85,3.13-2.78,4.61-.99,1.57-2.04,3.12-3.16,4.61-1.75,2.34-3.77,4.59-6.01,6.73-1.14,1.2-1.85,2.19-2.16,3.02-.35,.94-.04,1.83,.97,2.68,.72,.61,1.93,1.05,2.79,1.01Z"/><path class="cls-4" d="M530.78,235.99c-.16,.01-.33,.02-.48,.02-1.07,0-1.88-.25-2.42-.76-.62-.58-1.06-1.5-1.33-2.8-.38-1.65-.72-3.07-1.01-4.24-.29-1.16-.62-2.29-1-3.36-.36-.89-.32-1.8,.12-2.68,.46-.92,1.27-1.42,2.41-1.49,1.33-.26,3.25-.04,4.5,2.48,.59,1.29,1.07,2.73,1.43,4.3,.36,1.56,.64,2.96,.83,4.15,.23,1.36,.06,2.43-.52,3.18-.11,.14-.24,.27-.38,.39,0,0-.99,.62-2.15,.8Z"/><path class="cls-4" d="M561.41,231.83c1.33-.96,1.69-2.76,.86-4.16-.41-.7-.83-1.36-1.24-1.97-.58-.86-1.41-1.99-2.54-3.47-1.28-1.58-2.93-2.12-4.98-1.6-1.32,.52-2.04,1.29-2.16,2.28-.11,.96,.31,1.9,1.24,2.8,.68,.66,1.33,1.44,1.93,2.3,.6,.87,1.26,1.89,1.96,3.02,0,0,1.5,2.14,4.57,1,.12-.04,.23-.11,.34-.19h.02Z"/></g><g><path class="cls-4" d="M631.54,222.32c2.41-1.49,4.62-3.08,6.57-4.72,.87,.65,2.14,.98,3.79,.98h22.37c1.3,0,2.37-.21,3.17-.61,.63-.32,1.08-.82,1.34-1.49,2.39,2.67,4.94,4.86,7.59,6.53,1.95,1.26,3.46,1.96,4.6,2.15,.22,.03,.43,.05,.63,.05,.96,0,1.78-.38,2.44-1.13,1.11-1.12,1.38-2.33,.82-3.6-.52-1.16-1.63-2.36-3.31-3.56h0c-2.54-1.73-4.8-3.58-6.71-5.51,1.57-1.41,3.1-2.82,4.54-4.21,1.56-1.5,3-3.03,4.29-4.51,.98-.99,1.52-2,1.63-2.99,.11-1.05-.35-1.98-1.39-2.78-1.19-.87-2.4-1.26-3.61-1.17-1.25,.1-2.41,.97-3.46,2.59-.95,1.47-2.03,2.86-3.21,4.14-1.08,1.17-2.23,2.31-3.44,3.4-.54-.74-1.07-1.54-1.58-2.38-.55-.91-1.13-1.89-1.72-2.94,1.34-1.25,2.63-2.47,3.89-3.67,1.33-1.27,2.51-2.39,3.58-3.4,1.05-1.18,1.54-2.28,1.47-3.26-.07-.98-.52-1.83-1.37-2.59-1-.63-2.13-.89-3.36-.76-1.25,.13-2.38,.76-3.37,1.89-.71,.86-1.47,1.72-2.27,2.58-.66,.71-1.37,1.42-2.09,2.13-.3-.68-.6-1.39-.9-2.12-.39-.95-.81-1.98-1.26-3.07-.49-1.24-1.27-2.19-2.33-2.82-1.1-.65-2.35-.69-3.76-.1-1.25,.65-1.9,1.45-1.94,2.36-.04,.82,.24,1.98,.86,3.56,1.68,4.21,3.49,8.1,5.37,11.57,1.69,3.12,3.46,5.99,5.26,8.55-.13-.01-.26-.02-.38-.02h-20.17c1.45-1.82,2.74-3.74,3.84-5.72,1.23-2.23,2.48-4.61,3.71-7.08,.53-1.06,.92-2.1,1.15-3.08,.23-.98,.35-1.9,.35-2.74,0-3.91-2.54-5.9-7.55-5.9h-12.35c-1.38,0-2.54,.29-3.45,.85-.98,.6-1.48,1.57-1.48,2.88s.5,2.27,1.49,2.81c.91,.5,2.06,.75,3.43,.75h10.6c.8,0,1.04,.11,1.08,.12-.16,.45-.43,1.1-.8,1.94-.72,1.45-1.46,2.85-2.22,4.18-.68,1.19-1.43,2.39-2.22,3.57-1.36-1.19-2.68-2.26-3.92-3.19-1.35-1-2.76-2.01-4.21-3.01-1.6-.99-2.94-1.41-4.09-1.28-1.19,.13-2.07,.71-2.59,1.71-.54,1.01-.68,1.9-.44,2.66l.11,.29c.03,.07,.06,.14,.1,.2,.45,.77,1.19,1.55,2.22,2.35,1.27,.91,2.63,1.91,4.02,2.98,1.28,.98,2.64,2.08,4.05,3.28-2.41,2.42-5.08,4.49-7.94,6.17-.71,.4-1.37,.8-1.97,1.18-.63,.41-1.12,.86-1.44,1.34-.34,.5-.51,1.05-.51,1.63s.25,1.22,.76,1.94c1.58,2.24,4.18,2.29,7.72,.12Z"/><g><path class="cls-4" d="M614.99,223.54h-20.33c-3.35,0-4.05,2.02-4.05,3.72s.7,3.63,4.05,3.63h20.33c3.43,0,4.15-1.98,4.15-3.63s-.72-3.72-4.15-3.72Z"/><path class="cls-4" d="M614.99,210.28h-20.33c-3.35,0-4.05,1.98-4.05,3.63s.7,3.72,4.05,3.72h20.33c3.43,0,4.15-2.02,4.15-3.72s-.72-3.63-4.15-3.63Z"/><path class="cls-4" d="M616.88,237.13h0c-1.41-1-3.32-1.51-5.69-1.51h-12.06c-5.14,0-7.75,2.26-7.75,6.7v14.55c0,2.29,.58,4.05,1.71,5.22,1.16,1.19,3.19,1.79,6.04,1.79h12.06c2.3,0,4.19-.51,5.63-1.51,1.47-1.02,2.21-2.87,2.21-5.5v-14.55c0-2.42-.73-4.17-2.16-5.19Zm-5.75,19.43c0,.71-.35,.99-1.2,.99h-10.02c-.2,0-.62,0-.62-.99v-13.7c0-.7,.32-.84,.81-.84h9.34c1.01,0,1.34,.14,1.44,.2,.16,.1,.25,.32,.25,.64v13.7Z"/><path class="cls-4" d="M620.27,200.42c-.47-1.09-1.55-1.99-3.82-1.99h-6.25c.44-1.04,.2-2.5-.75-4.37-.77-1.34-1.59-2.7-2.44-4.04-.84-1.31-1.79-2.73-2.83-4.22-1.12-1.59-2.12-2.44-3.06-2.62-.93-.17-2.01,.13-3.28,.9-1.27,.74-1.85,1.65-1.73,2.69,.11,.94,.63,2.06,1.59,3.43,.89,1.27,1.76,2.56,2.57,3.83,.81,1.27,1.7,2.69,2.69,4.31,.02,.03,.04,.06,.06,.08h-11.07c-3.43,0-4.15,2.02-4.15,3.72s.72,3.63,4.15,3.63h24.51c3.43,0,4.15-1.98,4.15-3.63,0-.47-.06-.97-.21-1.44l-.11-.29Z"/></g><path class="cls-4" d="M689.01,260.08c0-1.03-.37-1.84-1.05-2.43-.67-.69-1.6-1.12-2.64-1.12h-.94c-.07,0-.13-.01-.2-.01h-16.92c.32-.61,.62-1.21,.88-1.81,.36-.81,.7-1.63,1.04-2.47,.07-.21,.11-.4,.16-.6l2.83-6.65h-.01c.53-.24,.99-.52,1.37-.86,.71-.63,1.19-1.47,1.44-2.49,.23-.96,.35-2.14,.35-3.48v-7.2c0-1.51-.12-2.77-.35-3.73-.25-1.02-.75-1.86-1.5-2.49-.74-.63-1.76-1.07-3.04-1.3-1.23-.22-2.84-.34-4.81-.34h-26.07c-1.89,0-3.46,.1-4.65,.3-1.24,.21-2.26,.61-3.03,1.21-.79,.61-1.33,1.45-1.61,2.5-.27,.99-.4,2.29-.4,3.87v7.2c0,1.3,.14,2.45,.4,3.41,.28,1.02,.84,1.86,1.66,2.49h0c.37,.29,.82,.54,1.33,.76h-.02l2.72,5.94c.12,.35,.28,.73,.48,1.14,.11,.2,.21,.4,.32,.61l1.84,4.02h-12.47c-4.07,0-4.93,1.98-4.93,3.65,0,1.12,.49,2.05,1.45,2.74,.92,.66,2.09,1,3.48,1h59.19c2.03,0,3.68-1.65,3.68-3.68,0-.02,0-.05,0-.07,0-.02,0-.04,0-.07Zm-51.03-29.46c0-.26,0-.74,1.1-.74h26.94c1.3,0,1.3,.5,1.3,.74v7.53c0,.64-.12,.78-.11,.78h0s-.23,.12-1.19,.12h-26.94c-.8,0-.97-.11-.98-.11,0,0-.13-.16-.13-.88v-7.45Zm23.15,19.52c-.12,.31-.25,.62-.37,.92l-2.41,5.46h-11.26c-.49-1.39-.98-2.7-1.46-3.88-.23-.56-.45-1.09-.66-1.6l-2.01-5.19h20.1l-1.35,3.06c-.19,.37-.38,.77-.58,1.22Z"/></g><path class="cls-4" d="M565.99,242.19c.65,.23,1.18,.69,1.59,1.26,1.64,2.29,4.85,6.46,6.7,8.34h0s.46,.47,1.16,1.12c2.25,2.06,4.1,3.36,6.67,3.47h4.51c1.82,0,3.29,1.6,3.29,3.57h0c0,1.97-1.47,3.57-3.29,3.57h-5.97c-1.83,0-4.75-.75-6.69-2.18-1.81-1.34-3.21-2.17-6.27-5.7h0c-.42-.44-.84-.89-1.24-1.36-1.25-1.45-3.81-4.9-4.84-6.54,0,0-1.79-3.34,.94-5.23,1.37-.95,2.65-.59,3.45-.31Z"/></g></g></svg>