<svg width="213" height="42" viewBox="0 0 213 42" fill="none" xmlns="http://www.w3.org/2000/svg">
<g clip-path="url(#clip0_2397_60984)">
<path d="M46.7757 8.03436C46.4533 7.51965 46.1062 7.00494 45.7342 6.54171C45.3623 6.05274 44.9655 5.61524 44.5439 5.17774C43.5024 4.09686 42.337 3.14465 41.0475 2.37259C40.0308 1.75494 38.9149 1.24024 37.7743 0.879943C35.4681 0.107885 32.914 -0.175204 30.2359 0.107885H30.1863L24.1853 0.777002L18.4075 1.42038L14.44 1.85788V11.7402C14.44 14.6483 16.8701 16.913 19.6474 16.6042L24.1853 16.0895V10.6336L29.9631 9.99024C35.4185 9.37259 39.8572 13.5417 39.8572 19.2549C39.8572 24.9682 35.4185 30.1152 29.9631 30.7329L24.1853 31.402V25.9976L14.44 27.0785L5.5625 28.0822V31.5307C5.5625 33.7696 7.34791 35.3652 9.48048 35.1079L14.44 34.5417V38.2733C14.44 40.4866 16.2998 42.2108 18.4075 41.9792L24.1853 41.3358L30.1863 40.6667H30.2359C32.914 40.3836 35.4433 39.5344 37.7495 38.2476C38.9149 37.6042 40.006 36.8579 41.0227 36.0086C41.7914 35.3652 42.5353 34.6961 43.2049 33.9498C44.1224 32.9719 44.9655 31.9167 45.6846 30.7844C46.0566 30.2182 46.4037 29.652 46.7261 29.0601C48.5115 25.7917 49.5282 22.0858 49.5282 18.2513C49.553 14.391 48.5363 10.9167 46.7757 8.03436Z" fill="url(#paint0_linear_2397_60984)"/>
<path d="M3.2532 19.8984L16.2222 18.4829V24.6594L0.203125 26.4351V23.2697C0.203125 21.4939 1.54218 20.1042 3.2532 19.8984Z" fill="url(#paint1_linear_2397_60984)"/>
<path d="M33.3545 17.3506L29.5109 17.7881C28.7422 17.8653 28.1719 18.5344 28.1719 19.3322V23.3726L32.0155 22.9351C32.7842 22.8579 33.3545 22.1888 33.3545 21.391V17.3506Z" fill="#B14E8A"/>
<path d="M85.2734 4.39752C85.2734 4.23281 85.3999 4.10156 85.5586 4.10156H91.1058C91.6166 4.10156 92.1249 4.17105 92.6432 4.30744C93.1615 4.44642 93.6227 4.67289 94.0368 4.98943C94.4509 5.30597 94.7857 5.72289 95.0436 6.24017C95.3015 6.75487 95.428 7.39825 95.428 8.16259C95.428 8.87289 95.3015 9.48539 95.0436 9.99752C94.7857 10.5097 94.4485 10.9317 94.0368 11.2611C93.6227 11.5905 93.1565 11.8324 92.6432 11.9894C92.1249 12.1464 91.6116 12.2262 91.1058 12.2262H85.5586C85.3999 12.2262 85.2734 12.0949 85.2734 11.9302V4.39752ZM90.8826 10.9729C91.2446 10.9729 91.6042 10.9266 91.9662 10.8416C92.3283 10.7567 92.6531 10.6049 92.9457 10.3913C93.2383 10.1802 93.4764 9.89715 93.6599 9.53428C93.8434 9.17142 93.9352 8.72105 93.9352 8.16774C93.9352 7.58612 93.8434 7.11259 93.6599 6.742C93.4764 6.37656 93.2383 6.08575 92.9457 5.88244C92.6531 5.67656 92.3283 5.53244 91.9662 5.45781C91.6042 5.38061 91.2446 5.342 90.8826 5.342H86.6671V10.9677H90.8826V10.9729Z" fill="#2C2D2D"/>
<path d="M101.641 4.09131H102.499C102.621 4.09131 102.732 4.17109 102.767 4.29462L104.726 10.3527L106.266 7.6891C106.524 7.23873 106.995 6.96337 107.498 6.96337C108.002 6.96337 108.478 7.24131 108.738 7.69682L110.246 10.3527L112.242 4.29462C112.282 4.17624 112.388 4.09646 112.51 4.09646H113.323C113.519 4.09646 113.653 4.29462 113.591 4.48249L111.349 11.4876C111.208 11.9226 110.772 12.2262 110.271 12.2262C109.849 12.2262 109.457 12.0075 109.269 11.6626L107.493 8.42771H107.471L105.696 11.6626C105.505 12.0075 105.118 12.2262 104.694 12.2262C104.198 12.2262 103.757 11.9277 103.615 11.4876L101.373 4.48249C101.314 4.29204 101.45 4.09646 101.641 4.09646V4.09131Z" fill="#2C2D2D"/>
<path d="M98.2383 12.2288H98.9773C99.136 12.2288 99.2624 12.0976 99.2624 11.9354V4.38469C99.2624 4.22256 99.136 4.09131 98.9773 4.09131H98.2383C98.0796 4.09131 97.9531 4.22256 97.9531 4.38469V11.9354C97.9531 12.0976 98.0796 12.2288 98.2383 12.2288Z" fill="#2C2D2D"/>
<path d="M58.75 4.35655V5.1106C58.75 5.26501 58.869 5.38854 59.0178 5.38854H61.6612V11.4157C61.6612 11.8661 62.0109 12.2316 62.4473 12.2316C62.8837 12.2316 63.2334 11.8687 63.2334 11.4157V5.38854H65.8768C66.0255 5.38854 66.1446 5.26501 66.1446 5.1106V4.35655C66.1446 4.20214 66.0255 4.07861 65.8768 4.07861H59.0178C58.869 4.07861 58.75 4.20214 58.75 4.35655Z" fill="#2C2D2D"/>
<path d="M67.4523 4.07861H68.3103C68.4294 4.07861 68.5409 4.15839 68.5781 4.27935L70.5371 10.3477L72.0746 7.67898C72.3325 7.22861 72.8011 6.95325 73.3045 6.95325C73.8079 6.95325 74.2815 7.23119 74.5419 7.68927L76.0471 10.3503L78.0433 4.28192C78.083 4.16354 78.1921 4.08119 78.3111 4.08119H79.1244C79.3179 4.08119 79.4542 4.28192 79.3923 4.46979L77.1531 11.4904C77.0117 11.9253 76.5753 12.229 76.0769 12.229C75.6553 12.229 75.266 12.0102 75.075 11.6654L73.302 8.42273H73.2772L71.5042 11.6654C71.3133 12.0102 70.9264 12.229 70.5024 12.229C70.0065 12.229 69.5676 11.9305 69.4262 11.4904L67.187 4.46979C67.125 4.27678 67.2614 4.07861 67.4523 4.07861Z" fill="#2C2D2D"/>
<path d="M71.3155 20.9893H70.3856V20.4205C70.3856 19.7077 70.2021 19.2341 69.8524 18.9665C69.5028 18.7143 68.9696 18.5882 68.2232 18.5882H65.679V17.5124C65.679 17.1804 65.5575 16.6426 64.7194 16.6426C63.8812 16.6426 63.7597 17.1959 63.7597 17.5124V18.5882H61.2006C60.4245 18.5882 59.8913 18.7143 59.5541 18.9665C59.2193 19.2341 59.0358 19.7257 59.0358 20.4205V20.9893H58.1357C57.8307 20.9893 57.6025 21.0536 57.4488 21.1643C57.2802 21.2904 57.2058 21.4963 57.2058 21.7974C57.2058 22.0985 57.2826 22.3043 57.4488 22.4304C57.6 22.5411 57.8307 22.6054 58.1357 22.6054H59.0358V23.2849C59.0358 23.9977 59.2193 24.4713 59.569 24.7235C59.9037 24.9757 60.4691 25.0863 61.2601 25.0863H63.7597V25.7812H61.2006C60.4393 25.7812 59.9211 25.9073 59.6012 26.1595C59.2813 26.4271 59.1127 26.8878 59.1127 27.5672V28.0099C59.1127 28.6893 59.2813 29.1474 59.6012 29.4021C59.9211 29.6543 60.4393 29.765 61.2006 29.765H64.1118C64.0969 29.7804 64.0821 29.7959 64.0821 29.8113C63.9754 29.9374 63.8539 30.0635 63.7473 30.1742C63.6556 30.2694 63.5489 30.3801 63.4274 30.4753H56.9206C56.6156 30.4753 56.3875 30.5396 56.2188 30.6657C56.0502 30.7918 55.9609 31.0132 55.9609 31.3143C55.9609 31.6154 56.0527 31.8367 56.2362 31.9474C56.4048 32.0426 56.6181 32.1043 56.9057 32.1043H61.2626C61.1113 32.1841 60.9576 32.2793 60.8063 32.39C60.1368 32.8018 59.8764 33.2599 60.0128 33.7179C60.1492 34.1606 60.608 34.4771 61.4461 34.683C61.8578 34.7782 62.2694 34.8889 62.6488 34.9841C62.8472 35.0485 63.0604 35.0948 63.2588 35.1591C62.8025 35.2698 62.314 35.3804 61.8106 35.4911C61.1089 35.6327 60.3476 35.7588 59.5094 35.8694C59.0532 35.9492 58.7482 36.0599 58.5647 36.2014C58.3663 36.3584 58.2745 36.6132 58.3068 36.8808C58.3365 37.2282 58.4754 37.4496 58.6886 37.5757C58.8102 37.64 58.9937 37.6863 59.2218 37.6863C59.3582 37.6863 59.497 37.6709 59.6632 37.6554C61.0494 37.465 62.2843 37.2437 63.3357 36.9915C64.3722 36.7547 65.3319 36.4382 66.1998 36.0907C67.1148 36.4073 67.9678 36.7238 68.7291 37.0558C69.2325 37.2771 69.597 37.3569 69.8425 37.308C70.1178 37.2617 70.3136 37.1021 70.4203 36.8499C70.5715 36.5488 70.5889 36.2657 70.4823 36.0444C70.3756 35.8231 70.0855 35.6327 69.6144 35.4602C69.2176 35.3032 68.7762 35.1437 68.3051 34.9713C69.0515 34.4977 69.7532 33.911 70.4079 33.247C71.184 32.4415 71.4444 31.8084 71.2014 31.2705C70.9584 30.7481 70.3012 30.4959 69.2052 30.4959H65.9146C66.0212 30.3209 66.0659 30.1639 66.051 30.0069C66.051 29.9271 66.0212 29.8499 65.989 29.7702H68.1836C68.9002 29.7702 69.4185 29.644 69.7532 29.4073C70.1029 29.1551 70.2864 28.679 70.2864 27.9996V27.5569C70.2864 26.8775 70.1029 26.4014 69.7532 26.1492C69.4185 25.897 68.9002 25.7709 68.1687 25.7709H65.6245V25.076H68.1687C68.93 25.076 69.4631 24.9499 69.7979 24.7132C70.1624 24.461 70.331 23.9694 70.331 23.2591V22.5797H71.2609C72.0544 22.5797 72.1611 22.0907 72.1611 21.7896C72.223 21.522 72.0991 20.9996 71.3229 20.9996L71.3155 20.9893ZM63.911 28.4062H61.3196C60.9998 28.4062 60.8311 28.2955 60.8311 28.0742V27.5054C60.8311 27.3948 60.8758 27.2996 60.9824 27.2378C61.0742 27.1735 61.1957 27.1426 61.3172 27.1426H63.9085V28.4088L63.911 28.4062ZM63.911 23.6786H61.2304C60.9254 23.6786 60.7741 23.5679 60.7741 23.3312V22.4613H63.9283V23.6786H63.9135H63.911ZM63.911 21.1488H60.7567V20.3896C60.7567 20.279 60.8014 20.1838 60.908 20.122C60.9998 20.0577 61.1213 20.0268 61.2725 20.0268H63.9085V21.1488H63.911ZM68.863 31.9654C69.0316 31.9654 69.1209 31.9963 69.1383 32.0606C69.1556 32.1249 69.0465 32.2665 68.8184 32.4724C68.2232 33.0411 67.5686 33.5327 66.8519 33.9418C66.3188 34.2429 65.6939 34.3047 65.1161 34.1477C64.8582 34.0679 64.5979 33.9907 64.34 33.9264C63.7771 33.7694 63.1968 33.6099 62.619 33.4529C62.4678 33.4066 62.3909 33.3731 62.3909 33.3268C62.376 33.2959 62.4206 33.247 62.4975 33.2007C62.7108 33.0746 62.9687 32.8996 63.2588 32.6937C63.5638 32.4878 63.8688 32.251 64.2036 31.9654H68.8655H68.863ZM68.1166 27.158C68.4365 27.158 68.6051 27.2687 68.6051 27.5054V28.0742C68.6051 28.1694 68.5605 28.2312 68.4687 28.311C68.377 28.3753 68.2555 28.4062 68.1191 28.4062H65.5278V27.158H68.1191H68.1166ZM68.6646 23.3312C68.6646 23.5679 68.4811 23.6786 68.1315 23.6786H65.5104V22.4613H68.6646V23.3312ZM68.6646 21.1488H65.5104V20.0113H68.1315C68.496 20.0113 68.6646 20.1374 68.6646 20.3742V21.1488Z" fill="#2C2D2D"/>
<path d="M86.5793 35.3654H83.5317C81.8703 35.3654 79.7997 35.3654 78.5351 33.8161C78.0466 33.2165 77.5754 32.519 77.0572 31.6029C77.7738 30.1154 78.3218 28.5043 78.6863 26.7801C79.036 25.0893 79.2964 23.1282 79.4327 20.9613H79.7824C80.7123 20.9613 80.9107 20.4389 80.9107 19.9962C80.9107 19.5536 80.7123 19.0621 79.7824 19.0621H74.6617C74.6766 18.9359 74.6766 18.8098 74.6915 18.6837C74.7064 18.5087 74.7064 18.3363 74.7212 18.1459C74.751 17.608 74.6915 17.0701 74.5229 16.8977C74.3542 16.7407 74.1112 16.6455 73.7765 16.6455C73.4119 16.6455 73.1813 16.7253 73.0449 16.9132C72.9234 17.0882 72.8466 17.5926 72.8019 18.0996C72.7722 19.3657 72.5887 20.6139 72.2837 21.8312C71.9638 23.0485 71.5968 24.1551 71.1876 25.1356C70.9892 25.5782 70.9124 25.8948 70.9446 26.1315C70.9744 26.3837 71.143 26.5896 71.4331 26.7312C71.815 26.9062 72.1349 26.9216 72.3928 26.7775C72.6209 26.636 72.849 26.3194 73.0623 25.7815C73.0623 25.7661 73.0772 25.7507 73.0772 25.7352C73.2458 26.7955 73.4739 27.7915 73.7318 28.6768C74.0368 29.7036 74.4187 30.6841 74.875 31.6029C74.4633 32.3466 73.9922 33.0569 73.4591 33.7209C72.8962 34.4003 72.2713 35.1132 71.5844 35.8389C71.2496 36.1554 71.0512 36.4231 70.9892 36.6624C70.9124 36.9301 70.9892 37.1848 71.2174 37.4371C71.4158 37.6584 71.6885 37.769 71.9935 37.7845H72.0382C72.3432 37.7845 72.6779 37.594 73.0127 37.2312C73.6376 36.5826 74.2005 35.9187 74.7188 35.2856C75.175 34.7014 75.6189 34.1146 76.0132 33.5304C76.4099 34.1481 76.8513 34.7632 77.3398 35.3499C77.9796 36.1246 78.6963 36.5363 78.9095 36.6315C80.3106 37.3444 81.1487 37.3444 83.6037 37.3444H86.5744C87.1075 37.3444 87.534 36.9018 87.534 36.3485C87.5192 35.8106 87.0926 35.3679 86.5744 35.3679L86.5793 35.3654ZM76.8588 27.3643C76.7521 28.108 76.6158 28.9444 76.4769 29.436C76.4 29.7036 76.1719 29.8143 76.0057 29.8143C75.8222 29.8143 75.6239 29.719 75.5346 29.4668C75.4131 29.0551 75.2916 28.3293 75.185 27.6808C75.1081 27.2536 75.0486 26.8418 74.9866 26.5433C74.6816 25.1201 74.4386 23.4757 74.2848 21.6562C74.3146 21.5301 74.3468 21.404 74.3617 21.2598L74.4063 20.9742H77.682C77.5457 22.9661 77.3324 24.7547 77.0572 26.2705C76.9803 26.5562 76.9208 26.9499 76.8588 27.3617V27.3643Z" fill="#2C2D2D"/>
<path d="M184.77 35.7925C181.646 35.2392 178.829 34.323 176.389 33.0568C177.395 32.3439 178.841 31.0495 179.984 29.7035C180.991 28.5017 182.072 26.8263 181.492 25.6862C181.202 25.1329 180.577 24.8627 179.632 24.8627H175V21.5737H181.688C181.732 21.8903 181.566 22.3973 181.398 22.9017C181.214 23.455 181.033 23.9774 181.122 24.2939C181.167 24.5307 181.306 24.7366 181.549 24.8781C181.854 25.0531 182.251 25.0995 182.538 24.9734C182.828 24.8627 183.071 24.577 183.255 24.1344C183.652 23.1848 184.2 21.4296 183.53 20.4182C183.195 19.8958 182.571 19.6436 181.703 19.6745H175.015V17.6336C175.015 17.348 174.938 17.1112 174.772 16.9388C174.588 16.7484 174.301 16.6377 173.963 16.6377C173.658 16.6377 173.386 16.7484 173.202 16.9388C173.033 17.1138 172.959 17.3506 172.959 17.6336V19.6745C171.025 19.7388 169.515 19.6899 168.312 19.659C166.194 19.6127 165.143 19.5792 164.563 20.166C163.968 20.7837 163.985 22.0318 164.015 24.5307C164.03 25.4803 164.044 26.6487 164.03 28.041C164.03 29.7009 163.878 31.2193 163.573 32.5473C163.268 33.9061 162.78 34.6653 162.217 35.5506C161.974 35.9623 161.835 36.3098 161.912 36.6263C161.974 36.8322 162.11 37.0046 162.368 37.1642C163.038 37.527 163.603 37.3057 164.059 36.5002C165.934 33.6848 166.07 30.3006 166.026 26.7594H166.956C167.047 26.9962 168.312 30.2234 172.411 33.2267C171.756 33.6848 170.963 34.0013 170.187 34.3024L169.973 34.3822C168.892 34.7939 167.948 35.1414 166.727 35.427C166.073 35.584 165.386 35.8388 165.54 36.7241C165.602 36.9917 165.723 37.1976 165.904 37.3237C166.194 37.5142 166.606 37.5296 167.184 37.4035C168.463 37.087 168.92 36.8811 169.621 36.598C169.849 36.5028 170.125 36.3921 170.459 36.2506C171.176 35.9649 172.411 35.3498 174.132 34.3848C177.011 36.109 180.455 37.3263 184.386 38.0212C184.448 38.0366 184.507 38.0366 184.569 38.0366C185.102 38.0366 185.544 37.6403 185.635 37.1024C185.742 36.4693 185.345 35.8851 184.768 35.7899L184.77 35.7925ZM179.255 27.2844C178.677 28.1388 177.99 28.9598 177.229 29.7524C176.604 30.3855 175.813 31.034 174.883 31.6825C174.549 31.9193 173.983 31.8884 173.663 31.6182C172.49 30.6377 172.215 30.3855 171.59 29.7061C170.829 28.8825 170.083 27.8866 169.351 26.7491H178.92C179.317 26.7491 179.392 26.8443 179.392 26.8752C179.436 26.955 179.392 27.0965 179.255 27.287V27.2844ZM172.947 21.5763V24.8653H166.013V21.8285C166.013 21.7642 166.028 21.7024 166.075 21.6535C166.12 21.5892 166.167 21.5892 166.197 21.5892L172.947 21.5737V21.5763Z" fill="#2C2D2D"/>
<path d="M90.9534 17.6056C90.8468 17.3045 90.5889 17.0986 90.1599 17.0214C89.7631 16.9416 89.4284 17.0214 89.1854 17.2736C88.9572 17.5104 88.7886 17.8424 88.6522 18.3005C88.4538 19.0288 88.2257 19.7545 87.9827 20.4365C87.7397 21.1159 87.4644 21.8133 87.1594 22.4773C86.8544 23.1413 86.5048 23.8207 86.108 24.5027C85.7113 25.1821 85.255 25.8795 84.7367 26.5744C84.34 27.0968 84.1416 27.4905 84.1267 27.8071C84.1118 28.0438 84.1887 28.3758 84.5978 28.6306C84.9326 28.8365 85.2525 28.8828 85.5575 28.7567C85.8328 28.6461 86.1204 28.3449 86.4725 27.8869C86.6089 27.6964 86.7478 27.5086 86.8693 27.3336L86.8544 33.6902C86.8544 34.403 87.2363 34.7968 87.9207 34.7968C88.6051 34.7968 89.0167 34.4005 89.0167 33.6902L89.0316 23.6174C89.3813 22.8582 89.7185 22.0836 90.0062 21.3089C90.2963 20.5188 90.5839 19.6953 90.8443 18.8255C91.0129 18.2722 91.0427 17.8913 90.9509 17.6082L90.9534 17.6056Z" fill="#2C2D2D"/>
<path d="M106.334 22.5876C106.165 22.3663 105.907 22.2248 105.558 22.2093C105.193 22.1784 104.918 22.2248 104.735 22.3663C104.551 22.5079 104.415 22.7935 104.308 23.2362C104.05 24.3917 103.79 25.4648 103.514 26.4299C103.257 27.395 102.981 28.3266 102.706 29.1965C102.431 30.0817 102.128 30.9516 101.823 31.806C101.655 32.2487 101.489 32.7222 101.32 33.1829C101.184 33.5457 101.228 33.942 101.441 34.2586C101.655 34.5751 101.989 34.781 102.356 34.781H102.371C102.753 34.781 103.088 34.5442 103.224 34.1634C103.5 33.4042 103.772 32.6604 104.018 31.9656C104.308 31.1112 104.596 30.2413 104.871 29.3869C105.146 28.517 105.404 27.6163 105.664 26.6821C105.922 25.7479 106.183 24.7365 106.458 23.6299C106.55 23.1873 106.52 22.8398 106.336 22.5851L106.334 22.5876Z" fill="#2C2D2D"/>
<path d="M98.3981 32.1688C98.1551 30.6813 97.8352 29.2427 97.4385 27.853C97.0417 26.4762 96.6003 25.053 96.1292 23.6144C96.0077 23.3133 95.8093 23.1074 95.5514 22.9813C95.2935 22.8707 94.9736 22.8552 94.6364 22.9504C94.3314 23.0148 94.1181 23.1718 93.9966 23.3931C93.8751 23.6298 93.89 23.9155 94.0264 24.3093C94.2843 24.9887 94.5149 25.6681 94.7133 26.3012C94.9116 26.9497 95.11 27.6137 95.2762 28.2776C95.4448 28.9416 95.6109 29.6365 95.7647 30.3339C95.9333 31.0287 96.0994 31.7571 96.2532 32.5162C96.3152 32.8328 96.3896 33.0696 96.5111 33.2291C96.6475 33.4196 96.9078 33.4968 97.3641 33.4968H97.441C97.8526 33.4504 98.1279 33.3398 98.2791 33.1648C98.4304 32.9898 98.4775 32.6758 98.4006 32.1688H98.3981Z" fill="#2C2D2D"/>
<path d="M109.919 37.4189H89.4911C88.9332 37.4189 88.4844 36.9608 88.4844 36.3921C88.4844 35.8233 88.9332 35.3652 89.4911 35.3652H109.919C110.477 35.3652 110.926 35.8233 110.926 36.3921C110.926 36.9608 110.462 37.4189 109.919 37.4189Z" fill="#2C2D2D"/>
<path d="M107.35 19.5512H101.347C101.178 19.1086 101.057 18.8229 100.965 18.5707C100.859 18.2851 100.707 17.9068 100.583 17.5104C100.447 17.0987 100.219 16.8619 99.8964 16.7821C99.5765 16.7024 99.3013 16.7358 99.0434 16.8774C98.7681 17.0343 98.6317 17.2093 98.6317 17.4152C98.6317 17.6211 98.6764 17.8579 98.8153 18.1744C98.907 18.4266 99.0136 18.6814 99.1351 18.9336C99.2269 19.1395 99.3186 19.3119 99.4253 19.5667H92.6457C92.0976 19.5667 91.6562 20.0248 91.6562 20.5935C91.6562 21.1623 92.0976 21.6204 92.6457 21.6204H107.35C107.899 21.6204 108.34 21.1623 108.34 20.5935C108.34 20.0248 107.899 19.5487 107.35 19.5487V19.5512Z" fill="#2C2D2D"/>
<path d="M196.212 28.5483C196.043 28.3425 195.892 28.1366 195.741 27.9487C195.59 27.7428 195.421 27.537 195.252 27.3311C195.084 27.1252 194.87 26.9039 194.657 26.6517C194.444 26.4149 194.201 26.1627 193.926 25.8616C194.002 25.5939 194.077 25.3083 194.139 25.0226C194.216 24.7215 194.275 24.3895 194.322 24.073C194.429 23.6612 194.414 23.3447 194.26 23.1233C194.139 22.9329 193.911 22.8222 193.606 22.7914C193.256 22.7605 192.996 22.8377 192.844 22.9972C192.693 23.1568 192.587 23.4245 192.539 23.8362C192.326 25.37 192.036 26.209 191.426 27.03C191.381 27.0943 191.334 27.1715 191.275 27.2358C190.697 28.0259 190.102 28.8495 187.999 29.5443C187.587 29.6858 187.312 29.9561 187.238 30.3035C187.176 30.5892 187.268 30.8877 187.481 31.0781C187.649 31.2197 187.845 31.2351 188.044 31.2351H188.334C188.592 31.2351 189.462 31.0138 190.345 30.602C191.701 29.7631 192.738 28.5149 193.286 27.5807C193.561 27.8972 193.804 28.2138 194.017 28.4969C194.245 28.8134 194.489 29.1917 194.764 29.6189C195.205 30.3627 195.723 30.2675 196.09 30.0616C196.348 29.92 196.502 29.745 196.547 29.5237C196.591 29.2381 196.485 28.9241 196.212 28.5432V28.5483Z" fill="#2C2D2D"/>
<path d="M211.193 35.3655H208.755C207.108 35.3655 205.053 35.3655 203.788 33.8317C203.285 33.232 202.814 32.5037 202.266 31.5541C202.204 31.4434 202.129 31.3173 202.052 31.1758C202.28 31.1295 202.571 30.9236 202.935 30.5273C203.835 29.5776 204.564 28.5019 205.083 27.2846C205.571 27.8842 205.998 28.4067 206.362 28.803C206.484 28.9445 206.605 29.0706 206.727 29.1993C207.138 29.6574 207.55 30.1335 208.128 30.6534L208.157 30.6842C208.569 31.0626 208.874 31.3482 209.209 31.3482C209.345 31.3482 209.484 31.3019 209.635 31.1912C209.925 30.9853 210.062 30.7486 210.062 30.4784C210.062 30.2262 209.97 29.9405 209.772 29.624C209.603 29.4026 209.04 28.8956 208.584 28.4865C208.341 28.2651 208.081 28.0284 208.051 27.9975C208.036 27.982 208.021 27.9512 207.746 27.6809C207.411 27.3335 206.846 26.7313 206.632 26.4791C206.357 26.1471 206.055 25.7842 205.732 25.3879C205.777 25.182 205.839 24.9762 205.883 24.7548C205.945 24.4692 206.005 24.1706 206.052 23.8695C206.144 23.4912 206.129 23.1901 205.99 22.9842C205.869 22.8092 205.67 22.6986 205.365 22.6677C205.045 22.6523 204.802 22.714 204.649 22.8581C204.497 23.0151 204.406 23.2699 204.373 23.6328C204.205 24.9762 203.87 26.1162 203.414 27.0324C202.943 27.9486 202.347 28.7721 201.631 29.467C201.539 29.5622 201.447 29.6574 201.388 29.7346C200.899 28.5971 200.458 27.4107 200.398 27.2512C200.321 26.8239 200.292 26.6026 200.292 26.2243V23.6637C200.307 23.1412 200.307 22.557 200.321 21.8776H208.839C209.251 21.8776 209.571 21.7824 209.769 21.592C209.982 21.3861 210.089 21.1339 210.089 20.8019C210.089 20.3901 209.953 20.107 209.707 19.932C209.479 19.7751 209.189 19.7107 208.839 19.7107H200.321V17.9401C200.321 17.5284 200.23 17.2118 200.064 16.9905C199.88 16.7537 199.592 16.6431 199.196 16.6431C198.799 16.6431 198.479 16.7692 198.328 17.0214C198.176 17.2581 198.1 17.5592 198.1 17.9376V19.7236H189.383C188.957 19.7236 188.637 19.8188 188.439 20.0247C188.225 20.2306 188.134 20.4982 188.134 20.8302C188.134 21.1622 188.24 21.4144 188.439 21.6048C188.637 21.8107 188.957 21.9059 189.383 21.9059H198.114V24.8938C198.114 25.9206 198.038 26.6181 197.871 27.5831C197.857 27.614 197.857 27.6475 197.857 27.6784C197.827 27.964 196.867 34.8251 187.328 35.9008C186.78 35.9651 186.398 36.4695 186.46 37.0228C186.522 37.5453 186.948 37.939 187.434 37.939H187.541C193.316 37.2905 196.332 34.6501 197.857 32.532C198.496 31.6467 198.923 30.7923 199.213 30.0486C199.9 31.4717 200.934 33.3221 200.996 33.4328C201.422 34.1276 201.911 34.7916 202.444 35.4581C203.069 36.2173 203.753 36.6291 204.029 36.7552C205.445 37.4835 206.268 37.4835 208.753 37.4835H211.19C211.738 37.4835 212.197 37.01 212.197 36.4387C212.197 35.839 211.755 35.3784 211.19 35.3629L211.193 35.3655Z" fill="#2C2D2D"/>
<path d="M123.164 30.8927C123.516 31.0986 123.831 31.3611 124.149 31.6159C124.553 31.9402 124.979 32.2696 125.381 32.6144C125.716 32.9027 126.179 33.2398 126.194 33.7391C126.207 34.1997 125.8 34.6269 125.396 34.7556C124.952 34.8972 124.421 34.506 124.032 34.1689C123.531 33.7365 123.008 33.3325 122.482 32.9336C122.08 32.6273 121.408 32.2773 121.369 31.688C121.341 31.2736 121.679 30.9005 122.023 30.7512C122.403 30.5865 122.819 30.6894 123.167 30.8927H123.164Z" fill="#2C2D2D"/>
<path d="M124.815 29.4903C124.988 29.8737 125.169 30.1002 125.368 30.1774C125.447 30.2083 125.529 30.2237 125.616 30.2237C125.745 30.2237 125.879 30.1877 126.02 30.1182C126.233 30.0204 126.387 29.8892 126.479 29.7296C126.573 29.5649 126.585 29.3307 126.516 29.0219C126.434 28.6333 126.31 28.2473 126.149 27.8715C125.988 27.501 125.792 27.1175 125.566 26.7289C125.286 26.276 124.892 26.1138 124.428 26.2605C124.121 26.3609 123.935 26.5204 123.875 26.734C123.821 26.9373 123.86 27.1921 124.002 27.519C124.143 27.8098 124.284 28.1212 124.418 28.4429C124.552 28.762 124.683 29.1094 124.815 29.4851V29.4903Z" fill="#2C2D2D"/>
<path d="M128.364 32.0046C127.987 32.0046 127.724 32.1179 127.587 32.3418C127.461 32.5502 127.396 32.841 127.396 33.2116C127.396 33.6903 127.382 34.0789 127.352 34.3723C127.322 34.6502 127.263 34.8664 127.171 35.0182C127.082 35.1649 126.96 35.2653 126.796 35.3245C126.62 35.3888 126.387 35.4377 126.1 35.466C125.78 35.5098 125.385 35.5407 124.927 35.5561C123.982 35.587 122.938 35.5895 121.884 35.5458C121.353 35.5226 120.86 35.4892 120.414 35.4429C119.91 35.4068 119.707 35.2936 119.625 35.2035C119.506 35.0748 119.446 34.8793 119.446 34.6219V31.9815C119.446 31.5723 119.352 31.2712 119.169 31.091C118.985 30.9134 118.74 30.8208 118.435 30.8208C117.983 30.8208 117.445 31.0215 117.445 31.9815V34.416C117.445 34.9384 117.485 35.3759 117.564 35.7182C117.646 36.0708 117.795 36.3642 118.011 36.5907C118.224 36.8171 118.517 36.9818 118.884 37.0873C119.238 37.1877 119.692 37.2623 120.237 37.3061C120.674 37.337 121.157 37.3627 121.678 37.3859C122.204 37.409 122.747 37.4193 123.295 37.4193C123.843 37.4193 124.381 37.4116 124.934 37.3962C125.475 37.3807 125.983 37.3576 126.449 37.3267C126.98 37.2804 127.436 37.1954 127.808 37.0719C128.19 36.9432 128.507 36.7219 128.753 36.4105C128.996 36.1017 129.17 35.6848 129.274 35.1675C129.375 34.6605 129.427 33.994 129.427 33.1859C129.427 32.8127 129.348 32.5193 129.194 32.3186C129.033 32.1101 128.755 32.002 128.369 32.002L128.364 32.0046Z" fill="#2C2D2D"/>
<path d="M128.843 29.4053C128.64 29.3564 128.426 29.3049 128.203 29.2483C127.868 29.1711 127.573 29.1608 127.325 29.2148C127.058 29.274 126.874 29.4207 126.78 29.6472C126.668 29.92 126.691 30.1644 126.839 30.3806C126.983 30.5865 127.246 30.7383 127.618 30.8336C128.161 30.9957 128.682 31.1269 129.163 31.2222C129.646 31.32 130.073 31.3689 130.432 31.3689C130.44 31.3689 130.447 31.3689 130.457 31.3689C131.154 31.3431 131.588 31.163 131.588 31.163C131.672 31.1269 131.757 31.0909 131.834 31.0446C132.203 30.8284 132.496 30.4964 132.704 30.0564C132.907 29.6266 133.051 29.0758 133.133 28.4196C133.212 27.7685 133.254 26.9836 133.254 26.0828C133.254 25.7791 133.225 25.5269 133.165 25.3314C133.103 25.1255 132.994 24.9608 132.843 24.8347C132.692 24.7111 132.481 24.6288 132.213 24.5902C131.96 24.5516 131.635 24.5336 131.248 24.5336H126.418V23.6045H130.718C131.02 23.5891 131.226 23.5325 131.382 23.3858C131.541 23.2391 131.62 23.0512 131.62 22.8299C131.62 22.4567 131.464 22.0115 130.718 22.0115H126.418V21.1468H130.718C131.281 21.0799 131.444 20.6939 131.459 20.3361C131.476 19.9192 131.174 19.5666 130.725 19.5538C130.723 19.5538 130.72 19.5538 130.715 19.5538H126.415V18.6891H131.338C132.002 18.6556 132.29 18.2696 132.29 17.9144C132.29 17.6648 132.218 17.4641 132.079 17.32C131.935 17.1707 131.692 17.0986 131.338 17.0986H120.045C119.574 17.0986 119.187 17.1398 118.899 17.2247C118.602 17.3122 118.364 17.4435 118.19 17.6185C118.016 17.7961 117.9 18.0225 117.848 18.2953C117.798 18.5527 117.773 18.8486 117.773 19.178V24.1758C117.773 24.5207 117.798 24.8141 117.848 25.0508C117.9 25.3005 118.011 25.5064 118.18 25.6633C118.346 25.8152 118.579 25.9284 118.877 26.0005C119.165 26.0674 119.546 26.1034 120.018 26.1034H130.547C131.077 26.1034 131.224 26.1652 131.261 26.1935C131.293 26.2166 131.37 26.3144 131.37 26.703C131.385 27.7067 131.323 28.4659 131.181 28.96C131.052 29.4181 130.75 29.642 130.256 29.642C130.088 29.642 129.897 29.624 129.694 29.5905M124.627 23.6019V24.531H119.941C119.638 24.531 119.596 24.3972 119.596 24.2659V23.6019H124.625H124.627ZM124.627 21.1468V22.0115H119.599V21.1468H124.627ZM124.627 18.6916V19.5564H119.599V19.0236C119.599 18.7894 119.703 18.6916 119.943 18.6916H124.63H124.627Z" fill="#2C2D2D"/>
<path d="M117.586 30.6021C117.973 30.1724 118.34 29.6885 118.677 29.161C119.012 28.6385 119.322 28.0801 119.595 27.501C119.759 27.1639 119.798 26.8782 119.712 26.6492C119.64 26.4588 119.486 26.3095 119.24 26.1988C118.987 26.1165 118.737 26.1371 118.494 26.2606C118.256 26.3815 118.067 26.59 117.931 26.8731C117.693 27.3389 117.425 27.8176 117.133 28.2911C116.887 28.6874 116.649 29.022 116.421 29.2922C116.292 29.444 116.18 29.6139 116.116 29.8043C116.029 30.0643 115.994 30.404 116.292 30.615C116.292 30.615 116.994 31.1992 117.589 30.5996L117.586 30.6021Z" fill="#2C2D2D"/>
<path d="M112.67 18.3032C113.087 18.7844 113.489 19.2785 113.878 19.7829C114.173 20.1638 114.478 20.5344 114.756 20.9307C114.981 21.2524 115.242 21.6874 115.626 21.8186C116.085 21.9756 116.484 21.8572 116.727 21.4969C116.995 21.1006 116.762 20.6399 116.539 20.2874C115.74 19.1164 114.912 18.0587 114.081 17.1451C113.769 16.8157 113.511 16.651 113.285 16.6432C113.065 16.6329 112.814 16.7436 112.512 16.9778C112.286 17.1734 112.197 17.3844 112.249 17.6032C112.293 17.7988 112.43 18.0278 112.67 18.3032Z" fill="#2C2D2D"/>
<path d="M111.413 36.385C111.524 36.7041 111.777 36.9589 112.092 37.0541C112.338 37.1287 112.665 37.1287 113.002 36.8328C113.55 36.3567 113.96 35.5538 114.416 34.756C114.872 33.9607 115.289 33.1192 115.656 32.2545C115.857 31.8196 115.901 31.4593 115.785 31.189C115.69 30.9703 115.497 30.8082 115.207 30.7129C114.857 30.5817 114.562 30.5843 114.334 30.7232C114.111 30.8596 113.927 31.1221 113.774 31.5262C113.456 32.2493 113.087 32.9828 112.675 33.7111C112.323 34.3339 111.961 34.8769 111.596 35.3299C111.596 35.3299 111.207 35.8034 111.41 36.385H111.413Z" fill="#2C2D2D"/>
<path d="M112.386 29.7967C112.686 29.7838 112.887 29.5882 113.11 29.4029C113.688 28.9268 114.149 28.2732 114.588 27.6812C115.106 26.9812 115.597 26.2658 116.061 25.5349C116.247 25.2415 116.433 24.9404 116.547 24.6136C116.594 24.4772 116.631 24.3279 116.592 24.1864C116.488 23.8184 115.922 23.5713 115.558 23.6099C115.317 23.6357 115.106 23.7823 114.955 23.9651C114.672 24.3099 114.496 24.7706 114.266 25.1515C114.02 25.5555 113.76 25.9544 113.482 26.3379C113.048 26.9401 112.547 27.5191 111.992 28.0698C111.709 28.3787 111.533 28.6335 111.456 28.8471C111.369 29.089 111.446 29.318 111.697 29.5368C111.875 29.6937 112.175 29.807 112.389 29.7967H112.386Z" fill="#2C2D2D"/>
<path d="M122.194 30.2444C122.154 30.2469 122.112 30.2495 122.075 30.2495C121.809 30.2495 121.608 30.1852 121.474 30.0539C121.321 29.9047 121.212 29.6679 121.145 29.3333C121.05 28.9087 120.966 28.5433 120.894 28.2422C120.822 27.9436 120.74 27.6528 120.646 27.3775C120.557 27.1484 120.567 26.9142 120.676 26.6878C120.79 26.451 120.991 26.3223 121.274 26.3043C121.603 26.2374 122.079 26.294 122.389 26.9425C122.536 27.2745 122.655 27.6451 122.744 28.0491C122.833 28.4506 122.903 28.8109 122.95 29.1172C123.007 29.4672 122.965 29.7425 122.821 29.9355C122.794 29.9716 122.761 30.005 122.727 30.0359C122.727 30.0359 122.481 30.1955 122.194 30.2418V30.2444Z" fill="#2C2D2D"/>
<path d="M129.788 29.1714C130.118 28.9244 130.207 28.4611 130.001 28.1008C129.9 27.9207 129.795 27.7508 129.694 27.5938C129.55 27.3725 129.344 27.0817 129.064 26.7008C128.746 26.2942 128.337 26.1552 127.829 26.2891C127.502 26.4229 127.323 26.621 127.293 26.8758C127.266 27.1229 127.37 27.3648 127.601 27.5964C127.769 27.7663 127.931 27.967 128.079 28.1883C128.228 28.4122 128.392 28.6747 128.565 28.9655C128.565 28.9655 128.937 29.5163 129.699 29.2229C129.728 29.2126 129.756 29.1946 129.783 29.174H129.788V29.1714Z" fill="#2C2D2D"/>
<path d="M147.174 26.7233C147.771 26.3399 148.319 25.9307 148.803 25.5086C149.018 25.6759 149.333 25.7608 149.743 25.7608H155.29C155.612 25.7608 155.877 25.7068 156.076 25.6038C156.232 25.5215 156.344 25.3928 156.408 25.2204C157.001 25.9075 157.633 26.4711 158.29 26.9009C158.774 27.2251 159.148 27.4053 159.431 27.4542C159.485 27.4619 159.537 27.4671 159.587 27.4671C159.825 27.4671 160.028 27.3693 160.192 27.1762C160.467 26.888 160.534 26.5766 160.395 26.2498C160.267 25.9512 159.991 25.6424 159.575 25.3336C158.945 24.8884 158.384 24.4123 157.911 23.9156C158.3 23.5527 158.679 23.1899 159.037 22.8321C159.423 22.4461 159.78 22.0524 160.1 21.6715C160.343 21.4167 160.477 21.1568 160.505 20.902C160.532 20.6318 160.418 20.3924 160.16 20.1865C159.865 19.9626 159.565 19.8623 159.265 19.8854C158.955 19.9112 158.667 20.1351 158.407 20.552C158.171 20.9303 157.903 21.288 157.611 21.6174C157.343 21.9185 157.058 22.2119 156.758 22.4924C156.624 22.302 156.492 22.0961 156.366 21.8799C156.229 21.6457 156.086 21.3935 155.939 21.1233C156.272 20.8016 156.592 20.4876 156.904 20.1788C157.234 19.852 157.526 19.5637 157.792 19.3038C158.052 19.0001 158.174 18.7171 158.156 18.4649C158.139 18.2126 158.027 17.9939 157.817 17.7983C157.569 17.6362 157.288 17.5693 156.983 17.6027C156.673 17.6362 156.393 17.7983 156.148 18.0891C155.972 18.3104 155.783 18.5318 155.585 18.7531C155.421 18.9358 155.245 19.1185 155.067 19.3012C154.992 19.1262 154.918 18.9435 154.843 18.7557C154.747 18.5112 154.642 18.2461 154.531 17.9656C154.409 17.6465 154.216 17.402 153.953 17.2399C153.68 17.0726 153.37 17.0623 153.021 17.2141C152.711 17.3814 152.55 17.5873 152.54 17.8215C152.53 18.0325 152.599 18.331 152.753 18.7376C153.17 19.8211 153.618 20.8222 154.085 21.7152C154.504 22.5182 154.943 23.2568 155.389 23.9156C155.357 23.913 155.324 23.9104 155.295 23.9104H150.293C150.653 23.4421 150.972 22.9479 151.245 22.4384C151.55 21.8645 151.86 21.252 152.165 20.6163C152.297 20.3435 152.393 20.0759 152.45 19.8237C152.507 19.5715 152.537 19.3347 152.537 19.1185C152.537 18.1123 151.907 17.6001 150.665 17.6001H147.602C147.26 17.6001 146.973 17.6748 146.747 17.8189C146.504 17.9733 146.38 18.2229 146.38 18.5601C146.38 18.8972 146.504 19.1443 146.749 19.2832C146.975 19.4119 147.26 19.4762 147.6 19.4762H150.229C150.427 19.4762 150.486 19.5046 150.496 19.5071C150.457 19.6229 150.39 19.7902 150.298 20.0064C150.119 20.3796 149.936 20.7399 149.747 21.0821C149.579 21.3884 149.393 21.6972 149.197 22.0009C148.86 21.6946 148.532 21.4193 148.225 21.1799C147.89 20.9226 147.54 20.6626 147.181 20.4053C146.784 20.1505 146.452 20.0424 146.167 20.0759C145.872 20.1093 145.653 20.2586 145.524 20.516C145.391 20.7759 145.356 21.0049 145.415 21.2005L145.443 21.2751C145.45 21.2932 145.458 21.3112 145.467 21.3266C145.579 21.5248 145.763 21.7255 146.018 21.9314C146.333 22.1656 146.67 22.4229 147.015 22.6983C147.332 22.9505 147.669 23.2336 148.019 23.5424C147.421 24.1652 146.759 24.6979 146.05 25.1303C145.874 25.2332 145.71 25.3362 145.562 25.434C145.405 25.5395 145.284 25.6553 145.205 25.7788C145.12 25.9075 145.078 26.049 145.078 26.1983C145.078 26.3476 145.14 26.5123 145.267 26.6976C145.658 27.274 146.303 27.2869 147.181 26.7285L147.174 26.7233Z" fill="#2C2D2D"/>
<path d="M143.069 27.0371H138.028C137.197 27.0371 137.023 27.557 137.023 27.9945C137.023 28.432 137.197 28.9287 138.028 28.9287H143.069C143.92 28.9287 144.098 28.4191 144.098 27.9945C144.098 27.5698 143.92 27.0371 143.069 27.0371Z" fill="#2C2D2D"/>
<path d="M143.069 23.6274H138.028C137.197 23.6274 137.023 24.137 137.023 24.5616C137.023 24.9863 137.197 25.519 138.028 25.519H143.069C143.92 25.519 144.098 24.9991 144.098 24.5616C144.098 24.1241 143.92 23.6274 143.069 23.6274Z" fill="#2C2D2D"/>
<path d="M143.542 30.5346C143.192 30.2772 142.719 30.146 142.131 30.146H139.141C137.866 30.146 137.219 30.7276 137.219 31.8703V35.6147C137.219 36.2041 137.363 36.657 137.643 36.9581C137.93 37.2644 138.434 37.4188 139.141 37.4188H142.131C142.701 37.4188 143.17 37.2875 143.527 37.0302C143.892 36.7677 144.075 36.2916 144.075 35.6147V31.8703C144.075 31.2475 143.894 30.7971 143.54 30.5346H143.542ZM142.116 35.535C142.116 35.7177 142.029 35.7897 141.819 35.7897H139.334C139.284 35.7897 139.18 35.7897 139.18 35.535V32.0092C139.18 31.8291 139.26 31.7931 139.381 31.7931H141.697C141.948 31.7931 142.029 31.8291 142.054 31.8445C142.094 31.8703 142.116 31.9269 142.116 32.0092V35.535Z" fill="#2C2D2D"/>
<path d="M144.38 21.0873C144.263 20.8068 143.995 20.5752 143.433 20.5752H141.883C141.992 20.3075 141.932 19.9318 141.697 19.4505C141.506 19.1057 141.302 18.7557 141.092 18.4108C140.883 18.0737 140.648 17.7083 140.39 17.3248C140.112 16.9156 139.864 16.6969 139.631 16.6505C139.401 16.6068 139.133 16.684 138.818 16.8822C138.503 17.0726 138.359 17.3068 138.389 17.5744C138.416 17.8164 138.545 18.1046 138.783 18.4572C139.004 18.784 139.22 19.116 139.42 19.4428C139.621 19.7697 139.842 20.1351 140.087 20.552C140.092 20.5597 140.097 20.5675 140.102 20.5726H137.357C136.507 20.5726 136.328 21.0925 136.328 21.53C136.328 21.9675 136.507 22.4641 137.357 22.4641H143.435C144.286 22.4641 144.464 21.9546 144.464 21.53C144.464 21.409 144.449 21.2803 144.412 21.1594L144.385 21.0847L144.38 21.0873Z" fill="#2C2D2D"/>
<path d="M161.427 36.4407C161.427 36.1757 161.335 35.9672 161.167 35.8154C161 35.6378 160.77 35.5271 160.512 35.5271H160.279C160.261 35.5271 160.247 35.5246 160.229 35.5246H156.034C156.113 35.3676 156.187 35.2132 156.252 35.0588C156.341 34.8503 156.425 34.6393 156.51 34.4231C156.527 34.369 156.537 34.3202 156.549 34.2687L157.251 32.5573H157.249C157.38 32.4955 157.494 32.4235 157.588 32.336C157.764 32.1738 157.883 31.9577 157.945 31.6952C158.002 31.4481 158.032 31.1444 158.032 30.7996V28.9466C158.032 28.558 158.002 28.2338 157.945 27.9867C157.883 27.7242 157.759 27.508 157.573 27.3459C157.39 27.1838 157.137 27.0705 156.82 27.0113C156.515 26.9547 156.115 26.9238 155.627 26.9238H149.162C148.694 26.9238 148.304 26.9496 148.009 27.001C147.702 27.0551 147.449 27.158 147.258 27.3124C147.062 27.4694 146.928 27.6856 146.858 27.9558C146.792 28.2106 146.759 28.5452 146.759 28.9518V30.8047C146.759 31.1393 146.794 31.4352 146.858 31.6823C146.928 31.9448 147.067 32.161 147.27 32.3231C147.362 32.3977 147.473 32.4621 147.6 32.5187H147.595L148.269 34.0474C148.299 34.1374 148.339 34.2352 148.389 34.3407C148.416 34.3922 148.441 34.4437 148.468 34.4977L148.924 35.5323H145.832C144.823 35.5323 144.609 36.0418 144.609 36.4716C144.609 36.7599 144.731 36.9992 144.969 37.1768C145.197 37.3466 145.487 37.4341 145.832 37.4341H160.509C161.013 37.4341 161.422 37.0095 161.422 36.4871C161.422 36.4819 161.422 36.4742 161.422 36.4691C161.422 36.4639 161.422 36.4588 161.422 36.451L161.427 36.4407ZM148.773 28.8591C148.773 28.7922 148.773 28.6687 149.046 28.6687H155.726C156.048 28.6687 156.048 28.7974 156.048 28.8591V30.797C156.048 30.9617 156.019 30.9977 156.021 30.9977C156.021 30.9977 155.964 31.0286 155.726 31.0286H149.046C148.847 31.0286 148.805 31.0003 148.803 31.0003C148.803 31.0003 148.77 30.9591 148.77 30.7738V28.8565L148.773 28.8591ZM154.513 33.8827C154.484 33.9624 154.451 34.0422 154.422 34.1194L153.824 35.5246H151.032C150.91 35.1668 150.789 34.8297 150.67 34.526C150.613 34.3819 150.558 34.2455 150.506 34.1143L150.008 32.7786H154.992L154.657 33.5661C154.61 33.6613 154.563 33.7643 154.513 33.8801V33.8827Z" fill="#2C2D2D"/>
<path d="M130.924 31.837C131.085 31.8962 131.217 32.0146 131.319 32.1613C131.725 32.7506 132.521 33.8238 132.98 34.3076C132.98 34.3076 133.094 34.4286 133.268 34.5959C133.826 35.126 134.284 35.4606 134.922 35.4889H136.04C136.491 35.4889 136.856 35.9006 136.856 36.4076C136.856 36.9146 136.491 37.3264 136.04 37.3264H134.56C134.106 37.3264 133.382 37.1334 132.901 36.7653C132.452 36.4205 132.105 36.2069 131.346 35.2984C131.242 35.1852 131.138 35.0694 131.038 34.9484C130.728 34.5753 130.094 33.6874 129.838 33.2653C129.838 33.2653 129.394 32.4058 130.071 31.9194C130.411 31.6749 130.728 31.7675 130.927 31.8396L130.924 31.837Z" fill="#2C2D2D"/>
</g>
<defs>
<linearGradient id="paint0_linear_2397_60984" x1="-2.50904" y1="40.466" x2="45.5302" y2="8.761" gradientUnits="userSpaceOnUse">
<stop stop-color="#4E61A7"/>
<stop offset="0.23" stop-color="#40629D"/>
<stop offset="0.24" stop-color="#40639D"/>
<stop offset="0.57" stop-color="#A0537D"/>
<stop offset="0.7" stop-color="#C94D70"/>
<stop offset="0.78" stop-color="#CF636F"/>
<stop offset="0.95" stop-color="#E19E6C"/>
<stop offset="1" stop-color="#E8B36C"/>
</linearGradient>
<linearGradient id="paint1_linear_2397_60984" x1="-3.69006" y1="27.0219" x2="27.9278" y2="16.5441" gradientUnits="userSpaceOnUse">
<stop stop-color="#4E90AD"/>
<stop offset="0.08" stop-color="#4C8AAA"/>
<stop offset="0.18" stop-color="#4679A4"/>
<stop offset="0.28" stop-color="#40639D"/>
<stop offset="0.35" stop-color="#45629B"/>
<stop offset="0.44" stop-color="#535F96"/>
<stop offset="0.53" stop-color="#6C5B8E"/>
<stop offset="0.63" stop-color="#8E5683"/>
<stop offset="0.73" stop-color="#B94F75"/>
<stop offset="0.76" stop-color="#C94D70"/>
<stop offset="0.83" stop-color="#CF636F"/>
<stop offset="0.96" stop-color="#E19E6C"/>
<stop offset="1" stop-color="#E8B36C"/>
</linearGradient>
<clipPath id="clip0_2397_60984">
<rect width="212" height="42" fill="white" transform="translate(0.203125)"/>
</clipPath>
</defs>
</svg>
