<svg width="192" height="192" viewBox="0 0 192 192" fill="none" xmlns="http://www.w3.org/2000/svg">
<rect width="192" height="192" fill="white"/>
<g clip-path="url(#clip0_2097_72922)">
<path d="M151.456 64.448C150.64 63.1747 149.759 61.9537 148.818 60.7849C147.878 59.6161 146.879 58.4996 145.821 57.4418C143.184 54.7908 140.206 52.5055 136.948 50.625C134.343 49.1232 131.554 47.8891 128.623 46.9489C122.759 45.0684 116.315 44.3763 109.55 45.0945C109.498 45.1076 109.446 45.1076 109.393 45.1141L94.2122 46.7334L79.573 48.3005L69.5241 49.3713V59.5182V73.4718V73.5371C69.5241 80.6216 75.6684 86.1455 82.7203 85.3947L94.2187 84.1671V70.8338L108.838 69.2733C122.687 67.7911 133.918 77.938 133.925 91.9242C133.925 105.917 122.7 118.46 108.851 119.936L94.2253 121.496V108.268L69.5307 110.905L47.0234 113.354V121.777C47.0234 127.216 51.5288 131.16 56.9352 130.52L69.5307 129.162V129.208V138.192V138.238C69.5307 143.638 74.2123 147.843 79.5796 147.268L94.2187 145.701L109.4 144.082C109.452 144.082 109.504 144.062 109.557 144.056C116.321 143.344 122.766 141.268 128.623 138.14C131.554 136.573 134.336 134.745 136.941 132.688C138.894 131.147 140.748 129.475 142.491 127.693C144.809 125.316 146.925 122.737 148.805 119.995C149.746 118.623 150.627 117.213 151.443 115.763C155.942 107.797 158.534 98.741 158.528 89.345C158.528 79.949 155.929 71.4411 151.43 64.4415L151.456 64.448Z" fill="url(#paint0_linear_2097_72922)"/>
<path d="M41.1607 93.4206L74.0303 89.96L74.0107 105.069L33.3906 109.424L33.4037 101.687C33.4037 97.2991 36.799 93.8907 41.1607 93.4206Z" fill="url(#paint1_linear_2097_72922)"/>
<path d="M117.394 87.1445L107.665 88.1827C105.745 88.3851 104.289 90.0045 104.289 91.9372V101.784L114.018 100.745C115.938 100.543 117.394 98.9238 117.394 96.991V87.1445Z" fill="#B14E8A"/>
</g>
<defs>
<linearGradient id="paint0_linear_2097_72922" x1="26.5926" y1="143.618" x2="145.534" y2="62.1496" gradientUnits="userSpaceOnUse">
<stop stop-color="#4E61A7"/>
<stop offset="0.23" stop-color="#40629D"/>
<stop offset="0.24" stop-color="#40639D"/>
<stop offset="0.57" stop-color="#A0537D"/>
<stop offset="0.7" stop-color="#C94D70"/>
<stop offset="0.78" stop-color="#CF636F"/>
<stop offset="0.95" stop-color="#E19E6C"/>
<stop offset="1" stop-color="#E8B36C"/>
</linearGradient>
<linearGradient id="paint1_linear_2097_72922" x1="23.5702" y1="110.815" x2="103.08" y2="83.4696" gradientUnits="userSpaceOnUse">
<stop stop-color="#4E90AD"/>
<stop offset="0.08" stop-color="#4C8AAA"/>
<stop offset="0.18" stop-color="#4679A4"/>
<stop offset="0.28" stop-color="#40639D"/>
<stop offset="0.35" stop-color="#45629B"/>
<stop offset="0.44" stop-color="#535F96"/>
<stop offset="0.53" stop-color="#6C5B8E"/>
<stop offset="0.63" stop-color="#8E5683"/>
<stop offset="0.73" stop-color="#B94F75"/>
<stop offset="0.76" stop-color="#C94D70"/>
<stop offset="0.83" stop-color="#CF636F"/>
<stop offset="0.96" stop-color="#E19E6C"/>
<stop offset="1" stop-color="#E8B36C"/>
</linearGradient>
<clipPath id="clip0_2097_72922">
<rect width="125.118" height="102.513" fill="white" transform="translate(33.3906 44.8164)"/>
</clipPath>
</defs>
</svg>
